# Exported from Wings 3D 1.2
mtllib 001.mtl
o cube1
#8 vertices, 6 faces
v -1.00000000 -1.00000000 1.00000000
v -1.00000000 1.00000000 1.00000000
v 1.00000000 1.00000000 1.00000000
v 1.00000000 -1.00000000 1.00000000
v -1.00000000 -1.00000000 -1.00000000
v -1.00000000 1.00000000 -1.00000000
v 1.00000000 1.00000000 -1.00000000
v 1.00000000 -1.00000000 -1.00000000
vt 0.12499131 0.50022835
vt 0.12514368 0.75001727
vt 0.37447551 4.9813587e-4
vt 0.37462787 0.25028706
vt 0.37478023 0.50007598
vt 0.37493260 0.74986491
vt 0.37508496 0.99965383
vt 0.62426443 3.4577160e-4
vt 0.62441679 0.25013469
vt 0.62456916 0.49992362
vt 0.62472152 0.74971254
vt 0.62487389 0.99950146
vt 0.87435808 0.49977125
vt 0.87451045 0.74956018
vn -0.57735027 -0.57735027 0.57735027
vn -0.57735027 0.57735027 0.57735027
vn 0.57735027 0.57735027 0.57735027
vn 0.57735027 -0.57735027 0.57735027
vn -0.57735027 -0.57735027 -0.57735027
vn -0.57735027 0.57735027 -0.57735027
vn 0.57735027 0.57735027 -0.57735027
vn 0.57735027 -0.57735027 -0.57735027
g cube1_cube1_auv
usemtl cube1_auv
s 1
f 1/1/1 4/5/4 3/6/3 2/2/2
f 1/4/1 5/9/5 8/10/8 4/5/4
f 2/3/2 6/8/6 5/9/5 1/4/1
f 3/6/3 7/11/7 6/12/6 2/7/2
f 4/5/4 8/10/8 7/11/7 3/6/3
f 6/14/6 7/11/7 8/10/8 5/13/5
