# Exported from Wings 3D 1.4.1
mtllib 000.mtl
o cube1
#18 vertices, 16 faces
v -0.37500000 -0.19644584 1.99811558
v -0.50000000 0.25000000 2.50000000
v 0.50000000 0.25000000 2.50000000
v 0.37500000 -0.19644584 1.99811558
v -0.37500000 -0.19644584 -2.31750253
v -0.50000000 0.25000000 -2.50000000
v 0.50000000 0.25000000 -2.50000000
v 0.37500000 -0.19644584 -2.31750253
v -0.50000000 0.0000000e+0 -2.50000000
v 0.0000000e+0 -0.19644584 -2.31750253
v 0.0000000e+0 0.25000000 -2.50000000
v 0.50000000 0.0000000e+0 -2.50000000
v 0.0000000e+0 0.0000000e+0 -2.50000000
v -0.50000000 0.0000000e+0 2.50000000
v 0.0000000e+0 -0.19644584 1.99811558
v 0.0000000e+0 0.25000000 2.50000000
v 0.50000000 0.0000000e+0 2.50000000
v 0.0000000e+0 0.0000000e+0 2.50000000
vt 0.0000000e+0 1.00000000
vt 1.2906343e-15 0.0000000e+0
vt 0.49873600 1.00000000
vt 0.49873600 8.3266727e-17
vt 0.99747200 1.00000000
vt 0.99747200 1.6653345e-16
vn 0.0000000e+0 -0.91668376 -0.39961341
vn 0.0000000e+0 -0.36562396 -0.93076266
vn 0.0000000e+0 -0.98265135 0.18546248
vn -0.32035180 -0.93713414 0.13839916
vn -0.32035180 -0.93713414 0.13839916
vn -0.32035180 -0.93713414 0.13839916
vn -1.00000000 0.0000000e+0 0.0000000e+0
vn 0.0000000e+0 0.0000000e+0 1.00000000
vn 0.0000000e+0 1.00000000 0.0000000e+0
vn 0.0000000e+0 1.00000000 0.0000000e+0
vn 0.0000000e+0 0.0000000e+0 1.00000000
vn 1.00000000 0.0000000e+0 0.0000000e+0
vn 0.32035180 -0.93713414 0.13839916
vn 0.32035180 -0.93713414 0.13839916
vn 0.32035180 -0.93713414 0.13839916
vn -0.33977265 -0.89302787 -0.29505214
vn -0.33977265 -0.89302787 -0.29505214
vn -0.33977265 -0.89302787 -0.29505214
vn -1.00000000 0.0000000e+0 0.0000000e+0
vn 0.0000000e+0 0.0000000e+0 -1.00000000
vn 0.0000000e+0 1.00000000 0.0000000e+0
vn 0.0000000e+0 1.00000000 0.0000000e+0
vn 0.0000000e+0 0.0000000e+0 -1.00000000
vn 1.00000000 0.0000000e+0 0.0000000e+0
vn 0.33977265 -0.89302787 -0.29505214
vn 0.33977265 -0.89302787 -0.29505214
vn 0.33977265 -0.89302787 -0.29505214
vn -0.96012574 -0.27956854 0.0000000e+0
vn 0.0000000e+0 -0.36562396 -0.93076266
vn 0.0000000e+0 -0.36562396 -0.93076266
vn -0.96012574 -0.27956854 0.0000000e+0
vn 0.0000000e+0 1.00000000 0.0000000e+0
vn 0.0000000e+0 0.0000000e+0 -1.00000000
vn 0.0000000e+0 0.0000000e+0 -1.00000000
vn 0.0000000e+0 1.00000000 0.0000000e+0
vn 0.96012574 -0.27956854 0.0000000e+0
vn 0.0000000e+0 -0.36562396 -0.93076266
vn 0.0000000e+0 -0.36562396 -0.93076266
vn 0.96012574 -0.27956854 0.0000000e+0
vn -0.96012574 -0.27956854 0.0000000e+0
vn 0.0000000e+0 -0.93120734 0.36448991
vn 0.0000000e+0 0.0000000e+0 1.00000000
vn -0.96012574 -0.27956854 0.0000000e+0
vn 0.0000000e+0 1.00000000 0.0000000e+0
vn 0.0000000e+0 0.0000000e+0 1.00000000
vn 0.0000000e+0 0.0000000e+0 1.00000000
vn 0.0000000e+0 1.00000000 0.0000000e+0
vn 0.96012574 -0.27956854 0.0000000e+0
vn 0.0000000e+0 0.0000000e+0 1.00000000
vn 0.0000000e+0 -0.93120734 0.36448991
vn 0.96012574 -0.27956854 0.0000000e+0
vn 0.0000000e+0 -0.93120734 0.36448991
vn 0.0000000e+0 0.0000000e+0 1.00000000
vn 0.0000000e+0 0.0000000e+0 1.00000000
vn 0.0000000e+0 -0.93120734 0.36448991
g cube1_Remode_IR
usemtl Remode_IR
s 3
f 11//33 13//2 9//29 6//20
f 12//38 13//2 11//34 7//23
g cube1_Remote_Black
usemtl Remote_Black
s 2
f 2//8 14//42 18//53 16//45
f 3//11 16//46 18//54 17//49
s 3
f 1//4 5//16 10//1 15//3
f 1//5 15//3 18//52 14//41
f 4//15 15//3 10//1 8//27
f 4//14 17//50 18//55 15//3
f 6//19 9//28 14//40 2//7
f 8//25 12//36 17//48 4//13
f 9//30 13//2 10//1 5//17
f 10//1 13//2 12//37 8//26
f 14//43 9//31 5//18 1//6
f 17//51 12//39 7//24 3//12
g cube1_Remote_Keys
usemtl Remote_Keys
s 1
f 7/5/22 11/3/32 16/4/44 3/6/10
f 16/4/47 11/3/35 6/1/21 2/2/9
