# Exported from Wings 3D 1.4.1
mtllib 000.mtl
o Mesh.018_Kueche_Hood
#24 vertices, 36 faces
v -0.26546100 -3.1516000e-2 -0.34973400
v -0.26569800 -3.1516000e-2 0.33060900
v -0.26546100 3.0440000e-2 -0.34973400
v 0.27536900 3.0440000e-2 0.33079800
v -0.26569800 3.0447000e-2 0.33060900
v 0.27560700 3.0440000e-2 -0.34954500
v 0.27560700 -3.1516000e-2 -0.34954500
v 0.27536900 -3.1516000e-2 0.33079800
v 0.27538300 8.9134000e-2 0.29274500
v -0.26568500 2.7171000e-2 0.29255600
v 0.27538300 2.7171000e-2 0.29274500
v 0.27559300 2.7171000e-2 -0.31149300
v 0.27559300 8.9134000e-2 -0.31149300
v -0.26568500 8.9134000e-2 0.29255600
v -0.26547400 8.9134000e-2 -0.31168200
v -0.26547400 2.7171000e-2 -0.31168200
v -0.26554200 0.55978100 -0.11690300
v -6.7686000e-2 0.55978100 -0.11683300
v -0.26554200 8.9547000e-2 -0.11690300
v -6.7767000e-2 8.9547000e-2 0.11552100
v -0.26562300 8.9547000e-2 0.11545100
v -0.26562300 0.55978100 0.11545200
v -6.7767000e-2 0.55978100 0.11552100
v -6.7686000e-2 8.9547000e-2 -0.11683300
vt -0.15393700 0.60627400
vt -0.15382200 0.54628100
vt -0.12768600 0.54961200
vt -0.12757100 0.48961500
vt 6.2340000e-3 0.49005700
vt 7.1090000e-3 3.4741000e-2
vt 0.16585000 0.49106100
vt 0.16672600 3.5745000e-2
vt 0.28739800 0.55222400
vt 0.28751400 0.49222700
vt 0.31343000 0.60921500
vt 0.31354600 0.54921600
vt 0.31354600 0.54922200
vt 0.34159100 0.60528600
vt 0.34271000 2.3162000e-2
vt 0.36422100 0.60542800
vt 0.36534100 2.3304000e-2
vt 0.48076100 0.23690400
vt 0.48117000 2.4033000e-2
vt 0.61893500 0.23777300
vt 0.61934500 2.4903000e-2
vt 0.72354600 0.60768900
vt 0.72466500 2.5566000e-2
vt 0.74617600 0.60783200
vt 0.74729500 2.5708000e-2
vt 0.78638000 0.61148200
vt 0.78648900 0.55479600
vt 0.78649500 0.55163200
vt 0.78649500 0.55163800
vt 0.78660400 0.49454900
vt 0.78660400 0.49494800
vt 0.78747800 4.0361000e-2
vt 0.92218700 0.49540200
vt 0.92306000 4.1214000e-2
vt 1.15714900 0.61381500
vt 1.15725800 0.55712900
vt 1.15726400 0.55397100
vt 1.15737300 0.49728200
vn -0.57714874 -0.57735045 -0.57755154
vn -0.57755172 -0.57735009 0.57714893
vn -0.66643251 0.33333271 -0.66690105
vn 0.66643600 0.33333230 0.66689777
vn -0.40838710 0.81649961 0.40810337
vn 0.40839461 0.81649349 -0.40810810
vn 0.57755201 -0.57735037 -0.57714836
vn 0.57714846 -0.57735017 0.57755211
vn 0.40796330 0.40824853 0.81663890
vn -0.66689947 -0.33333332 0.66643379
vn 0.66655045 -0.66666693 0.33356514
vn 0.40853324 -0.40824805 -0.81635417
vn 0.66678280 0.66666641 -0.33310149
vn -0.40839086 0.81649657 0.40810570
vn -0.66643379 0.33333335 -0.66689946
vn -0.40810567 -0.81649660 -0.40839083
vn -0.81635351 0.40824900 -0.40853361
vn 0.57755350 0.57734927 -0.57714797
vn -0.33309784 -0.66666744 -0.66678360
vn 0.66654946 -0.66666744 0.33356610
vn -0.66689986 -0.33333357 0.66643328
vn -0.40839092 0.81649627 0.40810623
vn 0.40796196 0.40824793 0.81663986
vn 0.57755350 -0.57734927 -0.57714797
g Mesh.018_Kueche_Hood_Hood_Metal
usemtl Hood_Metal
s 1
f 1/15/1 7/14/7 2/25/2
f 2/11/2 3/2/3 1/1/1
f 2/11/2 5/12/5 3/2/3
f 2/26/2 8/35/8 4/37/4
f 3/29/3 7/35/7 1/26/1
f 4/37/4 5/28/5 2/26/2
f 4/24/4 6/14/6 5/25/5
f 4/13/4 7/1/7 6/2/6
f 4/13/4 8/11/8 7/1/7
f 5/25/5 6/14/6 3/15/3
f 6/37/6 7/35/7 3/29/3
f 7/14/7 8/24/8 2/25/2
f 9/38/9 14/31/14 10/27/10
f 10/27/10 11/36/11 9/38/9
f 10/23/10 16/17/16 11/22/11
f 11/9/11 13/4/13 9/10/9
f 11/22/11 16/17/16 12/16/12
f 12/3/12 13/4/13 11/9/11
f 12/36/12 15/31/15 13/38/13
f 12/36/12 16/27/16 15/31/15
f 13/16/13 14/23/14 9/22/9
f 13/16/13 15/17/15 14/23/14
f 14/10/14 15/4/15 10/9/10
f 15/4/15 16/3/16 10/9/10
f 17/19/17 22/21/22 18/18/18
f 18/34/18 19/30/19 17/32/17
f 18/6/18 23/8/23 20/7/20
f 18/34/18 24/33/24 19/30/19
f 19/5/19 21/7/21 17/6/17
f 19/19/19 24/18/24 20/20/20
f 20/20/20 21/21/21 19/19/19
f 20/33/20 23/34/23 21/30/21
f 20/7/20 24/5/24 18/6/18
f 21/7/21 22/8/22 17/6/17
f 21/30/21 23/34/23 22/32/22
f 22/21/22 23/20/23 18/18/18
