# Exported from Wings 3D 1.4.1
mtllib 000.mtl
o cube1
#8 vertices, 6 faces
v -0.25000000 -0.27000000 0.31500000
v -0.25000000 0.27000000 0.31500000
v 0.25000000 0.27000000 0.31500000
v 0.25000000 -0.27000000 0.31500000
v -0.25000000 -0.27000000 -0.31500000
v -0.25000000 0.27000000 -0.31500000
v 0.25000000 0.27000000 -0.31500000
v 0.25000000 -0.27000000 -0.31500000
vt -9.8085878e-4 -1.7421729e-5
vt -9.8085878e-4 0.99875181
vt -5.5470394e-4 -5.0471365e-3
vt -5.5470394e-4 0.99938179
vt 0.0000000e+0 6.7676190e-4
vt 4.9960036e-16 0.99773276
vt 5.8135387e-4 -3.1694173e-4
vt 5.8135387e-4 0.99845229
vt 2.8549970e-3 -3.1613446e-3
vt 2.8549970e-3 0.99560789
vt 1.00000000 6.7676190e-4
vt 1.00000000 0.99773276
vt 1.00148752 -1.7421729e-5
vt 1.00148752 0.99875181
vt 1.00191367 -5.0471365e-3
vt 1.00191367 0.99938179
vt 1.00304973 -3.1694173e-4
vt 1.00304973 0.99845229
vt 1.00323824 -3.1613446e-3
vt 1.00323824 0.99560789
vn -0.57735027 -0.57735027 0.57735027
vn -0.57735027 0.57735027 0.57735027
vn 0.57735027 0.57735027 0.57735027
vn 0.57735027 -0.57735027 0.57735027
vn -0.57735027 -0.57735027 -0.57735027
vn -0.57735027 0.57735027 -0.57735027
vn 0.57735027 0.57735027 -0.57735027
vn 0.57735027 -0.57735027 -0.57735027
g cube1_Microwave_Front
usemtl Microwave_Front
s 1
f 4/5/4 8/11/8 7/12/7 3/6/3
g cube1_Microwave_Sides
usemtl Microwave_Sides
s 1
f 1/1/1 4/13/4 3/14/3 2/2/2
f 2/20/2 6/10/6 5/9/5 1/19/1
f 3/15/3 7/16/7 6/4/6 2/3/2
f 6/18/6 7/8/7 8/7/8 5/17/5
g cube1_default
usemtl default
s 1
f 1//1 5//5 8//8 4//4
