# Exported from Wings 3D 1.4.1
mtllib 000.mtl
o cube1
#40 vertices, 40 faces
v -2.00000000 -1.00000000 1.13095600
v -2.00000000 1.00000000 1.13095600
v 2.00000000 1.00000000 1.13095600
v 2.00000000 -1.00000000 1.13095600
v -2.00000000 -1.00000000 -1.13095600
v -2.00000000 1.00000000 -1.13095600
v 2.00000000 1.00000000 -1.13095600
v 2.00000000 -1.00000000 -1.13095600
v -1.76616015 2.92864976 -0.97673698
v -1.78351977 2.92864976 -0.95937737
v -1.80087938 2.92864976 -0.97673698
v -1.78351977 2.92864976 -0.99409660
v -1.71294477 0.92946237 -0.97673698
v -1.78351977 0.92946237 -0.90616198
v -1.85409477 0.92946237 -0.97673698
v -1.78351977 0.92946237 -1.04731198
v -1.77194669 2.93595401 -0.96516391
v -1.77194669 2.93595401 -0.98831006
v -1.73058852 1.92946237 -0.97673698
v -1.79509284 2.93595401 -0.96516391
v -1.78351977 1.92946237 -0.92380573
v -1.79509284 2.93595401 -0.98831006
v -1.83645102 1.92946237 -0.97673698
v -1.78351977 1.92946237 -1.02966823
v -1.73646977 0.92946237 -0.92968698
v -1.73646977 0.92946237 -1.02378698
v -1.83056977 0.92946237 -0.92968698
v -1.83056977 0.92946237 -1.02378698
v -1.74823227 1.92946237 -1.01202448
v -1.81880727 1.92946237 -1.01202448
v -1.81880727 1.92946237 -0.94144948
v -1.74823227 1.92946237 -0.94144948
v -1.75145151 1.94187005 -0.97673698
v -1.78351977 1.94187005 -0.94466873
v -1.81558802 1.94187005 -0.97673698
v -1.78351977 1.94187005 -1.00880524
v -1.76214093 1.94187005 -0.99811582
v -1.80489860 1.94187005 -0.99811582
v -1.80489860 1.94187005 -0.95535815
v -1.76214093 1.94187005 -0.95535815
vt 0.0000000e+0 5.5511151e-17
vt 1.1102230e-16 1.00000000
vt 0.14089564 1.9100000e-2
vt 0.14089564 3.7900000e-2
vt 0.49457872 1.9100000e-2
vt 0.49457872 3.7900000e-2
vt 0.72131800 0.93886667
vt 0.72131800 0.97986667
vt 0.79382303 0.93886667
vt 0.79382303 0.97986667
vt 0.81676667 0.94880020
vt 0.81676667 0.97930294
vt 0.85126393 0.94880020
vt 0.85126393 0.97930294
vt 0.91226941 0.94880020
vt 0.91226941 0.97930294
vt 0.94676667 0.94880020
vt 0.94676667 0.97930294
vt 1.00000000 0.0000000e+0
vt 1.00000000 1.00000000
vn 0.96980339 0.24388808 0.0000000e+0
vn 0.0000000e+0 0.24388808 0.96980339
vn -0.96980339 0.24388808 0.0000000e+0
vn 0.0000000e+0 0.24388808 -0.96980339
vn 0.87937438 -0.47613097 -2.7291859e-16
vn 0.0000000e+0 -0.47613097 0.87937438
vn -0.87937438 -0.47613097 -2.7291859e-16
vn 0.0000000e+0 -0.47613097 -0.87937438
vn 0.56428709 0.60262771 0.56428709
vn 0.56428709 0.60262771 -0.56428709
vn 0.85346514 0.52114993 -3.4095011e-16
vn -0.56428709 0.60262771 0.56428709
vn 0.0000000e+0 0.52114993 0.85346514
vn -0.56428709 0.60262771 -0.56428709
vn -0.85346514 0.52114993 -3.4095011e-16
vn 0.0000000e+0 0.52114993 -0.85346514
vn 0.38078792 -0.84261565 0.38078792
vn 0.38078792 -0.84261565 -0.38078792
vn -0.38078792 -0.84261565 0.38078792
vn -0.38078792 -0.84261565 -0.38078792
vn 0.61280832 0.49893077 -0.61280832
vn -0.61280832 0.49893077 -0.61280832
vn -0.61280832 0.49893077 0.61280832
vn 0.61280832 0.49893077 0.61280832
vn 0.85434690 0.51970316 -1.7050305e-16
vn 0.0000000e+0 0.51970316 0.85434690
vn -0.85434690 0.51970316 -1.7050305e-16
vn 0.0000000e+0 0.51970316 -0.85434690
vn 0.61317390 0.49803167 -0.61317390
vn -0.61317390 0.49803167 -0.61317390
vn -0.61317390 0.49803167 0.61317390
vn 0.61317390 0.49803167 0.61317390
vn 0.0000000e+0 0.0000000e+0 1.00000000
vn 0.0000000e+0 -1.00000000 0.0000000e+0
vn -1.00000000 0.0000000e+0 0.0000000e+0
vn 0.0000000e+0 0.0000000e+0 1.00000000
vn 0.0000000e+0 1.00000000 0.0000000e+0
vn -1.00000000 0.0000000e+0 0.0000000e+0
vn 0.0000000e+0 0.0000000e+0 1.00000000
vn 1.00000000 0.0000000e+0 0.0000000e+0
vn 0.0000000e+0 1.00000000 0.0000000e+0
vn 0.0000000e+0 0.0000000e+0 1.00000000
vn 1.00000000 0.0000000e+0 0.0000000e+0
vn 0.0000000e+0 -1.00000000 0.0000000e+0
vn 0.0000000e+0 -1.00000000 0.0000000e+0
vn 0.0000000e+0 0.0000000e+0 -1.00000000
vn -1.00000000 0.0000000e+0 0.0000000e+0
vn 0.0000000e+0 1.00000000 0.0000000e+0
vn 0.0000000e+0 0.0000000e+0 -1.00000000
vn -1.00000000 0.0000000e+0 0.0000000e+0
vn 1.00000000 0.0000000e+0 0.0000000e+0
vn 0.0000000e+0 1.00000000 0.0000000e+0
vn 0.0000000e+0 0.0000000e+0 -1.00000000
vn 1.00000000 0.0000000e+0 0.0000000e+0
vn 0.0000000e+0 -1.00000000 0.0000000e+0
vn 0.0000000e+0 0.0000000e+0 -1.00000000
g cube1_Radio
usemtl Radio
s 1
f 1/1/33 4/19/42 3/20/39 2/2/36
f 6/16/49 7/14/53 8/13/56 5/15/46
s 2
f 2/18/38 6/16/50 5/15/47 1/17/35
f 4/11/43 8/13/54 7/14/51 3/12/40
s 3
f 1/5/34 5/6/45 8/4/55 4/3/44
f 3/9/41 7/10/52 6/8/48 2/7/37
g cube1_Radio_Aerial
usemtl Radio_Aerial
s 1
f 9//1 18//10 17//9
f 9//1 33//25 37//29 18//10
f 10//2 17//9 20//12
f 11//3 20//12 22//14
f 12//4 18//10 37//29 36//28
f 12//4 22//14 18//10
f 13//5 19//11 32//24 25//17
f 14//6 21//13 31//23 27//19
f 14//6 25//17 32//24 21//13
f 15//7 23//15 30//22 28//20
f 15//7 27//19 31//23 23//15
f 16//8 28//20 30//22 24//16
f 17//9 18//10 22//14 20//12
f 17//9 40//32 33//25 9//1
f 19//11 33//25 40//32 32//24
f 20//12 39//31 34//26 10//2
f 21//13 34//26 39//31 31//23
f 22//14 38//30 35//27 11//3
f 23//15 35//27 38//30 30//22
f 24//16 29//21 26//18 16//8
f 24//16 36//28 37//29 29//21
f 25//17 26//18 13//5
f 25//17 27//19 28//20 26//18
f 26//18 28//20 16//8
f 26//18 29//21 19//11 13//5
f 27//19 25//17 14//6
f 28//20 27//19 15//7
f 29//21 37//29 33//25 19//11
f 30//22 38//30 36//28 24//16
f 31//23 39//31 35//27 23//15
f 32//24 40//32 34//26 21//13
f 34//26 40//32 17//9 10//2
f 35//27 39//31 20//12 11//3
f 36//28 38//30 22//14 12//4
