# Exported from Wings 3D 1.2
mtllib 002.mtl
o cube1
#26 vertices, 24 faces
v -0.55555556 -0.55555556 0.55555556
v -0.55555556 0.55555556 0.55555556
v 0.55555556 0.55555556 0.55555556
v 0.55555556 -0.55555556 0.55555556
v -0.55555556 -0.55555556 -0.55555556
v -0.55555556 0.55555556 -0.55555556
v 0.55555556 0.55555556 -0.55555556
v 0.55555556 -0.55555556 -0.55555556
v -0.75000000 0.0000000e+0 0.75000000
v 0.0000000e+0 -0.75000000 0.75000000
v -0.75000000 -0.75000000 0.0000000e+0
v 0.0000000e+0 0.75000000 0.75000000
v -0.75000000 0.75000000 0.0000000e+0
v 0.75000000 0.0000000e+0 0.75000000
v 0.75000000 0.75000000 0.0000000e+0
v 0.75000000 -0.75000000 0.0000000e+0
v -0.75000000 0.0000000e+0 -0.75000000
v 0.0000000e+0 -0.75000000 -0.75000000
v 0.0000000e+0 0.75000000 -0.75000000
v 0.75000000 0.0000000e+0 -0.75000000
v 0.0000000e+0 0.0000000e+0 1.00000000
v 1.00000000 0.0000000e+0 0.0000000e+0
v 0.0000000e+0 -1.00000000 0.0000000e+0
v 0.0000000e+0 1.00000000 0.0000000e+0
v 0.0000000e+0 0.0000000e+0 -1.00000000
v -1.00000000 0.0000000e+0 0.0000000e+0
vt 0.0000000e+0 0.15110967
vt 0.0000000e+0 0.48410329
vt 1.8657224e-2 0.62190201
vt 1.9421094e-2 0.28880280
vt 4.5838965e-2 2.0141196e-2
vt 4.6564540e-2 0.35339103
vt 0.14990642 0.66783923
vt 0.15092301 0.33401148
vt 0.16693479 0.50092535
vt 0.16702551 0.16700574
vt 0.18312801 0.0000000e+0
vt 0.18396317 0.33401148
vt 0.28730505 0.64845967
vt 0.28821206 0.31387028
vt 0.31462993 4.5208674e-2
vt 0.31521236 0.37994869
vt 0.33386959 0.51774741
vt 0.33405103 0.14960611
vt 0.33405103 0.48176056
vt 0.33405103 0.18290181
vt 0.35127690 0.61994576
vt 0.35263958 0.28719985
vt 0.37937860 1.7934966e-2
vt 0.38059018 0.35094895
vt 0.48271365 0.66594862
vt 0.48368836 0.33306692
vt 0.50049558 0.49950777
vt 0.50058096 0.16653346
vt 0.51747356 0.0000000e+0
vt 0.51827752 0.33306692
vt 0.62040098 0.64806659
vt 0.62178331 0.31513195
vt 0.64852234 4.5867072e-2
vt 0.64971426 0.37906978
vt 0.66694014 0.51725498
vt 0.66711089 0.18346081
vt 0.66711089 0.48154432
vt 0.66711089 0.14869364
vt 0.68433677 0.28687884
vt 0.68499292 0.61923165
vt 0.71311375 0.35010757
vt 0.71365004 1.7882027e-2
vt 0.81577351 0.33288170
vt 0.81580453 0.66577081
vt 0.83355174 0.49932625
vt 0.83355545 0.16644085
vt 0.85129895 0.33288170
vt 0.85133738 -2.7755576e-17
vt 0.95346085 0.31499967
vt 0.95398973 0.64854493
vt 0.98211056 0.37942085
vt 0.98277412 4.6002860e-2
vt 0.99999259 0.51710819
vt 1.00000000 0.18418806
vn -0.57735027 -0.57735027 0.57735027
vn -0.57735027 0.57735027 0.57735027
vn 0.57735027 0.57735027 0.57735027
vn 0.57735027 -0.57735027 0.57735027
vn -0.57735027 -0.57735027 -0.57735027
vn -0.57735027 0.57735027 -0.57735027
vn 0.57735027 0.57735027 -0.57735027
vn 0.57735027 -0.57735027 -0.57735027
vn -0.70710678 0.0000000e+0 0.70710678
vn 0.0000000e+0 -0.70710678 0.70710678
vn -0.70710678 -0.70710678 0.0000000e+0
vn 0.0000000e+0 0.70710678 0.70710678
vn -0.70710678 0.70710678 0.0000000e+0
vn 0.70710678 0.0000000e+0 0.70710678
vn 0.70710678 0.70710678 0.0000000e+0
vn 0.70710678 -0.70710678 0.0000000e+0
vn -0.70710678 0.0000000e+0 -0.70710678
vn 0.0000000e+0 -0.70710678 -0.70710678
vn 0.0000000e+0 0.70710678 -0.70710678
vn 0.70710678 0.0000000e+0 -0.70710678
vn 0.0000000e+0 0.0000000e+0 1.00000000
vn 1.00000000 0.0000000e+0 0.0000000e+0
vn 0.0000000e+0 -1.00000000 0.0000000e+0
vn 0.0000000e+0 1.00000000 0.0000000e+0
vn 0.0000000e+0 0.0000000e+0 -1.00000000
vn -1.00000000 0.0000000e+0 0.0000000e+0
g cube1_cube1_auv
usemtl cube1_auv
s 1
f 1/6/1 10/12/10 21/9/21 9/2/9
f 1/15/1 11/20/11 23/10/23 10/11/10
f 2/3/2 9/2/9 21/9/21 12/7/12
f 3/13/3 12/7/12 21/9/21 14/17/14
f 4/5/4 10/11/10 23/10/23 16/1/16
f 4/16/4 14/17/14 21/9/21 10/12/10
f 5/24/5 11/30/11 26/27/26 17/19/17
f 6/40/6 13/37/13 24/45/24 19/44/19
f 6/21/6 17/19/17 26/27/26 13/25/13
f 7/49/7 15/43/15 22/46/22 20/54/20
f 7/50/7 19/44/19 24/45/24 15/53/15
f 8/52/8 20/54/20 22/46/22 16/48/16
f 9/35/9 26/27/26 11/30/11 1/34/1
f 12/47/12 24/45/24 13/37/13 2/41/2
f 13/25/13 26/27/26 9/35/9 2/31/2
f 14/38/14 22/46/22 15/43/15 3/39/3
f 15/53/15 24/45/24 12/47/12 3/51/3
f 16/48/16 22/46/22 14/38/14 4/42/4
f 16/1/16 23/10/23 18/8/18 8/4/8
f 17/36/17 25/28/25 18/29/18 5/33/5
f 18/8/18 23/10/23 11/20/11 5/14/5
f 18/29/18 25/28/25 20/18/20 8/23/8
f 19/26/19 25/28/25 17/36/17 6/32/6
f 20/18/20 25/28/25 19/26/19 7/22/7
