# Exported from Wings 3D 1.4.1
mtllib 000.mtl
o cube1
#8 vertices, 6 faces
v -1.00000000 -2.00000000 2.50000000
v -1.00000000 2.00000000 2.50000000
v 1.00000000 2.00000000 2.50000000
v 1.00000000 -2.00000000 2.50000000
v -1.00000000 -2.00000000 -2.50000000
v -1.00000000 2.00000000 -2.50000000
v 1.00000000 2.00000000 -2.50000000
v 1.00000000 -2.00000000 -2.50000000
vt -2.4558000e-3 0.89977160
vt -2.4558000e-3 0.98261560
vt -1.0597440e-3 0.0000000e+0
vt -1.0597440e-3 1.00000000
vt 5.1080000e-3 1.00086667
vt 5.1080000e-3 8.6666667e-4
vt 8.8093333e-3 0.89550509
vt 8.8093333e-3 0.98153811
vt 2.5798950e-2 0.87080658
vt 2.5798950e-2 0.98585595
vt 0.28129245 0.98950312
vt 0.28129245 0.86823310
vt 0.41909929 0.98950312
vt 0.41909929 0.86823310
vt 0.99710800 8.6666667e-4
vt 0.99710800 1.00086667
vt 0.99994026 1.1102230e-16
vt 0.99994026 1.00000000
vt 1.00175333 0.89550509
vt 1.00175333 0.98153811
vt 1.00188638 0.87080658
vt 1.00188638 0.98585595
vt 1.00285420 0.89977160
vt 1.00285420 0.98261560
vn 0.0000000e+0 0.0000000e+0 1.00000000
vn 0.0000000e+0 -1.00000000 0.0000000e+0
vn -1.00000000 0.0000000e+0 0.0000000e+0
vn 0.0000000e+0 0.0000000e+0 1.00000000
vn 0.0000000e+0 1.00000000 0.0000000e+0
vn -1.00000000 0.0000000e+0 0.0000000e+0
vn 0.0000000e+0 0.0000000e+0 1.00000000
vn 1.00000000 0.0000000e+0 0.0000000e+0
vn 0.0000000e+0 1.00000000 0.0000000e+0
vn 0.0000000e+0 0.0000000e+0 1.00000000
vn 1.00000000 0.0000000e+0 0.0000000e+0
vn 0.0000000e+0 -1.00000000 0.0000000e+0
vn 0.0000000e+0 -1.00000000 0.0000000e+0
vn 0.0000000e+0 0.0000000e+0 -1.00000000
vn -1.00000000 0.0000000e+0 0.0000000e+0
vn 0.0000000e+0 1.00000000 0.0000000e+0
vn 0.0000000e+0 0.0000000e+0 -1.00000000
vn -1.00000000 0.0000000e+0 0.0000000e+0
vn 1.00000000 0.0000000e+0 0.0000000e+0
vn 0.0000000e+0 1.00000000 0.0000000e+0
vn 0.0000000e+0 0.0000000e+0 -1.00000000
vn 1.00000000 0.0000000e+0 0.0000000e+0
vn 0.0000000e+0 -1.00000000 0.0000000e+0
vn 0.0000000e+0 0.0000000e+0 -1.00000000
g cube1_PC_Back
usemtl PC_Back
s 1
f 6/18/17 7/4/21 8/3/24 5/17/14
g cube1_PC_Sides
usemtl PC_Sides
s 1
f 1/6/1 4/15/10 3/16/7 2/5/4
s 2
f 2/24/6 6/2/18 5/1/15 1/23/3
f 4/20/11 8/8/22 7/7/19 3/19/8
s 3
f 1/14/2 5/13/13 8/11/23 4/12/12
f 3/22/9 7/10/20 6/9/16 2/21/5
