# Exported from Wings 3D 1.4.1
mtllib 000.mtl
o cube1
#8 vertices, 6 faces
v -0.70000000 -1.00000000 0.70000000
v -0.70000000 1.00000000 0.70000000
v 0.70000000 1.00000000 0.70000000
v 0.70000000 -1.00000000 0.70000000
v -0.70000000 -1.00000000 -0.70000000
v -0.70000000 1.00000000 -0.70000000
v 0.70000000 1.00000000 -0.70000000
v 0.70000000 -1.00000000 -0.70000000
vt 1.7666667e-3 5.1163989e-4
vt 1.7666667e-3 0.99784497
vt 0.38455621 7.6687324e-3
vt 0.38455621 4.3002066e-2
vt 0.42553333 0.37060000
vt 0.42553333 0.70393333
vt 0.71788954 7.6687324e-3
vt 0.71788954 4.3002066e-2
vt 0.75886667 0.70393333
vt 0.75886667 0.37060000
vt 0.97753699 -3.3333333e-4
vt 0.97753699 0.99880277
vt 0.98514422 0.0000000e+0
vt 0.98514422 0.99913610
vt 0.98687032 -3.3333333e-4
vt 0.98687032 0.99880277
vt 0.99447755 5.5511151e-17
vt 0.99447755 0.99913610
vt 0.99620365 -3.3333333e-4
vt 0.99620365 0.99880277
vt 0.99910000 5.1163989e-4
vt 0.99910000 0.99784497
vn 0.0000000e+0 0.0000000e+0 1.00000000
vn 0.0000000e+0 -1.00000000 0.0000000e+0
vn -1.00000000 0.0000000e+0 0.0000000e+0
vn 0.0000000e+0 0.0000000e+0 1.00000000
vn 0.0000000e+0 1.00000000 0.0000000e+0
vn -1.00000000 0.0000000e+0 0.0000000e+0
vn 0.0000000e+0 0.0000000e+0 1.00000000
vn 1.00000000 0.0000000e+0 0.0000000e+0
vn 0.0000000e+0 1.00000000 0.0000000e+0
vn 0.0000000e+0 0.0000000e+0 1.00000000
vn 1.00000000 0.0000000e+0 0.0000000e+0
vn 0.0000000e+0 -1.00000000 0.0000000e+0
vn 0.0000000e+0 -1.00000000 0.0000000e+0
vn 0.0000000e+0 0.0000000e+0 -1.00000000
vn -1.00000000 0.0000000e+0 0.0000000e+0
vn 0.0000000e+0 1.00000000 0.0000000e+0
vn 0.0000000e+0 0.0000000e+0 -1.00000000
vn -1.00000000 0.0000000e+0 0.0000000e+0
vn 1.00000000 0.0000000e+0 0.0000000e+0
vn 0.0000000e+0 1.00000000 0.0000000e+0
vn 0.0000000e+0 0.0000000e+0 -1.00000000
vn 1.00000000 0.0000000e+0 0.0000000e+0
vn 0.0000000e+0 -1.00000000 0.0000000e+0
vn 0.0000000e+0 0.0000000e+0 -1.00000000
g cube1_Dishwasher
usemtl Dishwasher
s 1
f 1/1/1 4/21/10 3/22/7 2/2/4
f 6/16/17 7/12/21 8/11/24 5/15/14
s 2
f 2/20/6 6/16/18 5/15/15 1/19/3
f 4/13/11 8/17/22 7/18/19 3/14/8
s 3
f 1/7/2 5/8/13 8/4/23 4/3/12
f 3/10/9 7/9/20 6/6/16 2/5/5
